<svg width="82" height="101" fill="none" xmlns="http://www.w3.org/2000/svg"><mask id="keks-mask" mask-type="alpha" maskUnits="userSpaceOnUse" x="0" y="0" width="82" height="101"><path fill="#AAA" d="M0 0h82v101H0z"/></mask><g mask="url(#keks-mask)"><path d="M62.208 64.055s2.49 8.069 5.774 13.687c1.471 2.45 4.83 6.297 5.962 8.71 3.698 7.843 6.301 18.475 6.301 18.475l-38.489 20.7-38.073-20.398S5.72 96.104 9.04 88.073c1.019-2.45 4.188-6.447 5.51-9.011 3.018-5.77 5.697-13.65 5.697-13.65" fill="#EB532A"/><path d="M41.757 126.42L2.89 105.607l.113-.49c.038-.075 2.113-9.276 5.396-17.269.604-1.47 1.886-3.356 3.132-5.241.943-1.433 1.849-2.752 2.415-3.808 2.943-5.618 5.622-13.461 5.66-13.536l1.283.452c-.038.075-2.717 7.994-5.736 13.725-.604 1.13-1.51 2.488-2.49 3.959-1.208 1.81-2.453 3.657-3.019 4.977-2.792 6.787-4.717 14.516-5.207 16.552l37.281 19.984 37.696-20.285c-.566-2.187-2.943-11.123-6.112-17.873-.604-1.281-1.963-3.091-3.246-4.826-1.056-1.395-2.037-2.715-2.679-3.808-3.32-5.58-5.735-13.498-5.849-13.838l1.283-.414c.038.075 2.49 8.068 5.736 13.536.604 1.055 1.585 2.337 2.604 3.695 1.358 1.81 2.717 3.657 3.396 5.052 3.698 7.805 6.301 18.513 6.34 18.627l.112.527-39.243 21.115z" fill="#10122E"/><path d="M59.945 72.352c-2.943 1.13-5.887 2.639-8.603 4.11-6.415 3.506-13.811 3.544-20.34.188-2.377-1.244-5.056-2.45-7.81-3.356 0 0-8.302 14.29-7.962 18.589.377 4.298 5.283-3.507 5.245 2.64-.038 6.145.453 14.478 3.66 16.552 2.755 1.772 14.34 9.69 17.546 11.877v.565s.151-.113.416-.301c.264.188.415.264.415.264v-.604c3.094-2.337 14.263-10.821 16.905-12.744 3.094-2.225 3.17-10.557 2.83-16.703-.34-6.146 4.943 1.395 5.094-2.904.188-4.298-7.396-18.173-7.396-18.173z" fill="#EFA75B"/><path d="M70.396 38.646c-.15 7.164-1.094 14.63-4.83 20.85-1.66 2.79-2.34 4.902-4.98 6.9-2.227 1.584-7.208.642-10.792 3.583 0 0-4.981 4.223-9.283 3.996-4.15-.264-8.302-3.732-8.302-3.732-2.075-1.999-7.056-2.376-10.112-3.432-3.585-1.32-9.283-12.367-9.66-14.328l-.981-3.732c-1.246-2.904-1.51-6.109-3.057-9.012-1.094-1.885-1.924-3.431-2.34-5.203-.83-3.997-1.81-8.107-2.49-12.104-1.245-5.957-3.736-15.685.264-20.737 0 0 4.528-1.018 12.603 7.428 3.887 3.43 7.736 9.954 12.604 11.801 0 0 1.66-1.697 2.641-3.318 1.094.905 3.17 2.112 4.83 1.885 1.094 0 1.924-1.055 2.755-1.055.679 0 1.81.64 2.075.64 2.906 1.207 2.755-1.319 4.415-1.206 1.66 0 1.66 3.167 5.245 1.207l1.811-.151c4.566-4.789 13.66-17.005 21.433-15.27C81.151 5.351 73 32.084 70.66 38.57" fill="#EB532A"/><path d="M40.888 74.69h-.415c-4.34-.302-8.528-3.733-8.716-3.884l-.038-.038c-1.245-1.207-3.849-1.81-6.34-2.375-1.282-.302-2.49-.566-3.509-.943-3.924-1.47-9.66-12.631-10.113-14.856l-.943-3.657c-.566-1.32-.943-2.715-1.283-4.035-.453-1.659-.905-3.355-1.698-4.901-1.056-1.81-1.962-3.47-2.415-5.354-.226-1.094-.49-2.225-.717-3.319-.641-2.903-1.283-5.92-1.811-8.785-.076-.415-.189-.867-.264-1.32-1.283-5.995-3.208-15.006.68-19.945l.15-.189.226-.038c.19-.037 4.981-1.018 13.245 7.617 1.396 1.244 2.717 2.79 4.15 4.449 2.454 2.865 4.982 5.806 7.774 7.05.528-.565 1.547-1.734 2.226-2.865l.415-.678.604.527c.944.792 2.868 1.923 4.302 1.697h.113c.377 0 .792-.226 1.208-.49.49-.302.98-.566 1.547-.566.566 0 1.207.264 1.698.49.15.076.34.151.415.151h.075l.114.038c1.32.528 1.698.189 2.264-.34.415-.414.98-.98 1.962-.904.868 0 1.396.603 1.849 1.056.679.716 1.17 1.244 3.018.226l.151-.076 1.66-.113c.68-.716 1.397-1.546 2.265-2.526C59.793 10.1 67.453 1.504 74.397 3.05c.98.226 1.735.867 2.301 1.885 3.924 7.315-5.51 33.633-5.585 33.897-.264 11.915-2.943 17.721-4.943 21.04a49.862 49.862 0 00-1.019 1.81c-1.056 1.96-2 3.656-4.15 5.278-1.095.792-2.566 1.018-4.264 1.282-2.151.34-4.566.716-6.49 2.3-.19.15-4.944 4.147-9.359 4.147zM32.7 69.711c.264.227 4.113 3.318 7.886 3.545 3.962.188 8.717-3.77 8.755-3.846 2.226-1.81 4.98-2.263 7.17-2.602 1.546-.226 2.867-.452 3.66-1.018 1.886-1.433 2.716-2.941 3.735-4.826.302-.604.642-1.207 1.057-1.848 3.094-5.165 4.566-11.5 4.754-20.511 2.906-8.07 8.603-27.751 5.773-33.068-.34-.64-.792-1.056-1.396-1.169-6.15-1.357-13.433 6.863-18.3 12.33-.906 1.018-1.774 1.998-2.491 2.752l-.189.189-1.924.15c-2.68 1.434-3.811.227-4.566-.565-.378-.377-.604-.603-.868-.603h-.075c-.302-.038-.491.113-.868.49-.604.603-1.547 1.508-3.66.679a2.86 2.86 0 01-.718-.264c-.34-.151-.905-.377-1.17-.377-.188 0-.528.188-.867.377-.49.301-1.132.64-1.85.678-1.66.227-3.546-.716-4.716-1.545-.981 1.432-2.264 2.714-2.302 2.79l-.302.34-.415-.152c-3.32-1.282-6.075-4.487-8.792-7.616-1.396-1.622-2.717-3.167-4.037-4.336l-.038-.038c-4-4.185-7.019-5.92-8.905-6.674-1.434-.565-2.415-.603-2.83-.603-3.283 4.487-1.472 12.933-.264 18.55.113.453.188.906.301 1.358.529 2.866 1.17 5.882 1.774 8.748.226 1.131.49 2.224.717 3.318.415 1.697 1.245 3.243 2.264 4.977.906 1.697 1.358 3.469 1.849 5.203.377 1.358.717 2.64 1.245 3.884l.038.113.98 3.77c.378 1.848 5.963 12.594 9.246 13.838.943.34 2.113.604 3.358.868 2.717.64 5.472 1.281 6.981 2.714z" fill="#10122E"/><path d="M60.736 39.814c-.415-1.32-1.397-2.262-2.755-2.526-1.094-.264-2.226 0-3.17-.151.151-.905.83-3.846-1.245-3.582-1.094 0-2.226 3.167-2.906 3.997-1.094 1.583-1.81 1.206-1.924-.641-.264-1.886.68-4.412-.83-4.789-1.094-.15-1.925 1.998-2.34 3.318-.15.641-.83 1.207-.566-3.431 0-1.207 0-4.412-.679-4.525h-.264c-1.924.151-3.32 7.58-3.887 9.69-.415-2.11-2.641-11.16-4.301-9.162-.415 1.207-.151 1.697-.264 2.904 0 .64-.151 5.203-.68 4.411-.264-1.32-1.81-3.997-2.641-3.582-1.51 1.32-.264 3.167-.68 5.052-.263 1.886-.98 2.263-1.924.528-.566-.83-1.509-3.996-2.641-4.11-1.925-.263-1.396 2.678-1.396 3.582-.981 0-2.076-.263-3.17-.15-1.396.264-2.34 1.056-2.905 2.375-.151.264 0 10.218 9.131 10.369 1.51 0 2.642-.15 3.887-.641.83-.264 1.51-.905 2.226-.415l9.396.641c.68-.528 1.396-.905 2.075-.64 1.246.527 3.057 1.47 4.566 1.47 4.717 0 8.868-1.886 10.226-6.108.377-.151-.189-3.582-.34-3.884z" fill="#EDA65B"/><path d="M22.323 41.282s5.811-.528 7.32.264c3.057 1.47 3.434 4.788 3.434 4.411 0 0-1.81.641-2.339.641-.981.151-2.226.264-2.906.264-4.679-.528-5.509-5.58-5.509-5.58zM58.812 42.075s-5.66-.83-7.32-.151c-3.17 1.32-3.736 4.638-3.736 4.223 0 0 1.811.64 2.226.83 1.51.414 2.227.414 2.906.414 4.792-.264 5.924-5.316 5.924-5.316z" fill="#fff"/><path d="M48.02 46.072c.416.15 1.812.641 2.227.83 1.094.263 1.811.414 2.49.414h.264c4.151-.15 5.547-4.411 5.66-5.052-.566-.151-3.056-.415-4.83-.415-1.094 0-1.81.15-2.226.264-2.603 1.018-3.471 3.431-3.584 3.959z" fill="#fff"/><path d="M35.718 55.497c-.415-2.111.151-4.223.566-6.372 0 0 1.397-4.525 3.585-4.902 5.66-1.055 6.226 11.425 6.226 11.425-6.679 2.903-10.377-.15-10.377-.15z" fill="#F4783F"/><path d="M55.642 57.118c-.415-.905-2.076-1.697-3.32-1.885-2.642-.264-11.623 1.697-11.623 1.697l-.038.075c-1.17-.34-9.169-2.488-11.622-2.224-1.245.15-3.056.829-3.434 1.696-.679 1.32.151 3.054.83 4.525.83 1.584 2.755 3.997 4.717 5.203.83.528 1.66.83 2.49.83 6.906.15 7.321-3.96 7.321-3.846l.113-.717.038.038c.264 0-.566 4.223 6.226 4.223.83 0 1.66.264 2.49-.15 1.925-1.207 4-3.432 4.83-5.053.68-1.358 1.661-2.979.982-4.412z" fill="#EDA65B"/><path d="M35.567 55.763c.264-.83 5.547.15 5.547.15s4.566-1.055 5.245.152c.151.264-.566 1.206-.566 1.206s-1.924-.15-2.34.264c-.565.528-.83 3.054-.678 3.054.15 0-.981 1.32-1.51 1.32-.415 0-1.66-.905-1.51-1.056.152-.15-.15-2.79-.83-3.318-.414-.415-1.924.15-2.49-.15-.34-.416-.868-1.622-.868-1.622z" fill="#CF4B28"/><path d="M29.794 41.02c-.68-.264-1.811-.415-3.736-.415-1.924 0-3.735.151-3.886.151h-.528v.528s1.094 5.43 6.075 5.958c.15 0 2.34 0 3.17-.151.415-.151 2.64-.641 2.64-.641s.039-4.11-3.735-5.43zm.868 4.94c-.68.264-2.075.264-2.641.264-1.812-.151-3.17-1.056-4.151-2.677a5.07 5.07 0 01-.83-1.886c.717 0 1.811-.15 3.17-.264.339 0 .64 0 .905.038-.15 1.056-.34 3.77.717 3.582 1.019-.189 1.283-2.262 1.358-3.243.076.038.151.038.151.038 1.925.905 2.755 2.753 3.057 3.582-.68.264-1.472.566-1.736.566zM59.077 41.547c-.151 0-2.868-.415-5.095-.415-1.245 0-1.924.15-2.49.264-2.34.905-3.472 2.941-3.887 3.997l-.226 1.206 2.755.905c1.094.264 1.924.415 2.64.415l.454-.038c4.98-.264 6.377-5.693 6.377-5.693l.15-.528-.678-.113zm-1.925 2.79c-.83 2.111-4.415 2.526-4.566 2.526-.566 0-1.396-.15-2.34-.414-.263-.151-.98-.377-1.66-.641.264-.83 1.246-2.527 3.17-3.319.038 1.019.227 3.017 1.245 3.205.981.189.944-2.375.868-3.468 1.51 0 3.283.15 4.226.264-.113.527-.679 1.055-.943 1.847z" fill="#131841"/><path d="M15.795 49.388c.83 2.112 2.34 3.733 4.415 4.789 1.396.83 2.641-1.32 1.245-2.112-1.396-.791-2.641-1.885-3.17-3.318-.566-1.47-3.056-.83-2.49.641zM61 54.179c1.51-1.056 3.17-1.999 4.15-3.733.83-1.32-1.395-2.677-2.226-1.207-.679 1.207-2.075 1.999-3.32 2.79-.566.415-.83 1.056-.415 1.697.302.603 1.283.867 1.811.453z" fill="#EDA65B"/><path d="M35.304 67.335c-.264 0-.566-.264-.566-.528s.151-.528.566-.528c4.981-.415 5.396-3.318 5.547-3.431 0-.264.264-.528.566-.415.264 0 .566.264.566.528 0 .15 0 2.903 5.245 3.054.264 0 .566.264.566.528s-.264.528-.566.528c-2.641 0-4.415-.83-5.547-2.112-.15-.15-.264-.414-.264-.528-1.019 1.17-2.679 2.64-6.113 2.904z" fill="#131841"/><path d="M46.208 56.175c.151.264-.566 1.207-.566 1.207s-1.924-.151-2.34.264c-.565.527-.83 3.054-.678 3.054.15 0-.982 1.32-1.51 1.32-.415 0-1.66-.906-1.51-1.056.152-.151-.15-2.79-.83-3.318-.414-.415-1.924.15-2.49-.151-.415-.151-.83-1.32-.83-1.32" fill="#CF4B28"/><path d="M41.114 62.548c-.679 0-2.226-1.697-2.075-1.886 0-.527-.264-2.375-.566-2.79h-.981c-.566 0-1.094.151-1.396-.15-.566-.264-.981-1.207-1.095-1.584-.15-.264 0-.528.265-.641.264-.151.566 0 .679.264.15.528.566 1.055.679 1.055h.83c.68 0 1.245-.15 1.66.264.83.641.982 2.904.982 3.055v.527c.264.264.679.528.98.641.265-.15.68-.64.982-.904 0-.264 0-.642.15-1.32.265-1.47.68-1.886.83-1.999.416-.414 1.661-.414 2.491-.414.151-.264.264-.415.264-.528 0-.264 0-.415.264-.528.265-.15.566-.15.68.15.15.152.415.642-.68 1.886-.15.15-.264.264-.415.15-.83 0-1.81 0-1.924.152-.264.264-.566 1.885-.566 2.375v.264c-.113.377-1.208 1.847-2.038 1.96z" fill="#131841"/><path d="M10.813 38.909c2.34-2.112 3.736-6.75 4.302-10.482-.15.528 4 .64 6.377-1.886 1.66-1.696.68-3.054-.264-5.203-2.641-5.43-7.056-9.69-11.32-13.687C8.814 6.595 7.68 3.918 5.757 4.597c-1.51.528-1.396 4.902-1.094 6.26 1.585 11.462 6.15 28.052 6.15 28.052zM68.208 37.703c-2.227-2.112-4.566-6.524-4.981-10.106 0 .528-4 .528-6.226-1.998-1.51-1.697-.566-2.903.566-4.788 2.905-4.902 7.47-8.786 11.886-12.48 1.245-.906 2.49-2.263 4.301-1.471 1.51.64 1.095 3.582.83 4.788-2.226 12.782-6.376 26.055-6.376 26.055z" fill="#fff"/><path d="M68.471 20.432c-3.056.792-6.377 2.488-7.81 5.354-.642-3.356 2.528-7.126 5.207-8.936.83-.528 0-1.886-.83-1.32-3.321 2.376-6.793 6.9-5.811 11.01.15.452.566.566.905.528l-.113.452c-.151.905 1.396 1.32 1.51.415.678-3.318 4.15-5.203 7.32-5.957 1.019-.34.603-1.81-.378-1.546zM13.04 16.852c-.831-.528-1.51.64-.831 1.32 2.189 1.545 4.868 4.712 5.207 7.616-1.434-2.866-4.679-4.563-7.81-5.354-.982-.264-1.397 1.206-.416 1.47 3.17.83 6.641 2.677 7.32 5.958.151.565.83.64 1.208.414.377.227.981.151 1.132-.414 1.094-4.11-2.49-8.748-5.81-11.01z" fill="#ED662B"/><path d="M20.662 19.112c-2.34-3.997-5.66-7.315-8.981-10.482L8.096 4.633c-.68-.64-2.075-.905-2.905-.15-1.812 1.583-1.397 5.052-1.095 7.163.566 4.11 1.396 8.107 2.34 12.104a250.38 250.38 0 003.736 15.27c0 .264.264.415.414.415.152.15.416 0 .68-.15 2.641-2.527 3.735-6.373 4.301-9.955 1.66.264 4.415-.905 5.095-1.32 4-2.262 1.773-5.957 0-8.898zm-.982 8.257c-.679.415-1.509.641-2.34.83-.263 0-1.508 0-1.508.15-.151-.527-1.095-.64-1.246 0-.566 3.168-1.396 6.75-3.434 9.276-2.339-8.634-4.414-17.533-5.81-26.318-.265-1.47-.416-7.956 2.339-5.203l2.641 3.054c1.246 1.206 2.49 2.526 3.736 3.732 2.642 2.678 4.83 5.694 6.49 9.012.415.83.83 1.47.981 2.262.642 1.32-.754 2.527-1.849 3.205zM72.245 5.953c-1.246.15-2.34 1.056-3.17 1.885-1.66 1.47-3.32 2.79-4.98 4.223a41.457 41.457 0 00-7.623 9.276c-1.66 2.79-.264 5.052 2.641 6.372.566.264 2.49.905 3.736.83.68 3.581 2.49 7.05 4.98 9.576.265.151.416.151.68.151.151 0 .264-.15.415-.414 1.51-4.789 2.755-9.69 4-14.63.981-3.997 1.924-8.22 2.49-12.367.151-2.225-.037-5.015-3.17-4.902zm1.773 4.638c-.566 5.957-2.34 12.103-3.886 17.947-.68 2.677-1.397 5.317-2.227 7.843-2.226-2.526-3.584-5.693-4.15-9.011-.151-.641-1.095-.528-1.246 0 .151-.415.264-.264-.264-.151-.566 0-1.094-.151-1.66-.264-1.51-.415-3.736-1.47-3.887-3.167-.15-1.207 1.245-2.79 1.925-3.846.98-1.47 2.075-2.79 3.17-4.11 2.075-2.263 4.301-4.11 6.64-6.108.982-.83 1.925-1.697 3.17-2.376 2.566-1.395 2.566 1.96 2.415 3.243z" fill="#131841"/></g></svg>