<svg width="120" height="120" viewBox="0 0 120 120" fill="none" xmlns="http://www.w3.org/2000/svg">
<path d="M60 26C37.948 26 20 43.948 20 66C20 88.052 37.948 106 60 106C82.0529 106 100 88.052 100 66C100 43.948 82.0661 26 60 26Z" fill="#4A4797"/>
<path d="M60 27.5563C38.805 27.5563 21.5563 44.8043 21.5563 66.0005C21.5563 87.1967 38.805 104.445 60 104.445C81.195 104.445 98.4437 87.1967 98.4437 66.0005C98.4437 44.8043 81.195 27.5563 60 27.5563ZM60 108C36.8445 108 18 89.1562 18 66.0005C18 42.8447 36.8445 24 60 24C83.1555 24 102 42.8447 102 66.0005C102 89.1562 83.1555 108 60 108Z" fill="#1E1E40"/>
<rect x="67.7246" y="59.7744" width="34.9995" height="7.84185" transform="rotate(172.482 67.7246 59.7744)" fill="#1E1E40"/>
<path d="M27.0006 88.9999L30 40L38 32L41 101L27.0006 88.9999Z" fill="#1E1E40"/>
<path d="M54.2987 97.7122L64.2831 85.4677L59.6407 59.8024L55.4818 36.8105L51.9033 17.0269L45.136 27.589L47.9993 49.5025L51.0058 72.5117L54.2987 97.7122Z" fill="#877F7E"/>
<path d="M55.4818 36.8105L51.9033 17.0269L45.136 27.589L47.9993 49.5025M55.4818 36.8105L47.9993 49.5025M55.4818 36.8105L59.6407 59.8024M47.9993 49.5025L51.0058 72.5117M59.6407 59.8024L64.2831 85.4677L54.2987 97.7122L51.0058 72.5117M59.6407 59.8024L51.0058 72.5117" stroke="#1E1E40" stroke-linejoin="round"/>
<path d="M64.2811 85.4683L90.9499 84.9833L84.2394 60.3995L78.2278 38.3765L73.0551 19.4265L51.9013 17.0275L55.4799 36.8111L59.6387 59.803L64.2811 85.4683Z" fill="#B7B4B3"/>
<path d="M55.4799 36.8111L51.9013 17.0275L73.0551 19.4265L78.2278 38.3765M55.4799 36.8111L78.2278 38.3765M55.4799 36.8111L59.6387 59.803M78.2278 38.3765L84.2394 60.3995M59.6387 59.803L64.2811 85.4683L90.9499 84.9833L84.2394 60.3995M59.6387 59.803L84.2394 60.3995" stroke="#1E1E40" stroke-linejoin="round"/>
<path d="M64.2808 85.4679L54.2964 97.7124L79.5654 96.7889L90.9497 84.9829L64.2808 85.4679Z" fill="#D8D3D2" stroke="#1E1E40" stroke-linejoin="round"/>
<path fill-rule="evenodd" clip-rule="evenodd" d="M63.6099 15.6277C61.938 16.7334 60.0997 19.3393 58.0648 22.1478C56.4883 25.4578 57.5155 30.5169 59.8628 32.7617C61.1404 33.9835 63.8146 36.052 67.9451 34.2679C71.6543 32.5176 72.1389 26.8218 73.2988 24.7135C74.855 21.8849 74.9294 19.0423 73.6199 17.0104C71.3276 13.4537 67.0229 13.3707 63.6099 15.6277Z" fill="#1E1E40"/>
<path fill-rule="evenodd" clip-rule="evenodd" d="M68.4936 35.0951C66.6237 36.3605 64.5664 39.3404 62.2891 42.5522C60.5236 46.3365 61.6663 52.1171 64.2875 54.68C65.7141 56.075 68.7009 58.436 73.3194 56.3928C77.467 54.3886 78.0146 47.8789 79.3132 45.4682C81.0555 42.2341 81.1417 38.9854 79.6802 36.6647C77.1219 32.6025 72.3106 32.5121 68.4936 35.0951Z" fill="#1E1E40"/>
<path fill-rule="evenodd" clip-rule="evenodd" d="M73.8698 58.4224C71.9021 59.7396 69.7379 62.8428 67.3422 66.1875C65.4856 70.1287 66.6911 76.1508 69.4513 78.8218C70.9537 80.2755 74.0986 82.7364 78.9592 80.6101C83.3241 78.5242 83.8975 71.7434 85.2634 69.2329C87.0959 65.8647 87.1852 62.4806 85.6457 60.0625C82.9509 55.8298 77.8865 55.7335 73.8698 58.4224Z" fill="#1E1E40"/>
<ellipse rx="6.25729" ry="5.32431" transform="matrix(0.127568 0.99183 0.99183 -0.127568 64.8486 27.8084)" fill="#992B07"/>
<ellipse rx="6.9686" ry="5.92956" transform="matrix(0.127568 0.99183 0.99183 -0.127568 69.7916 49.1069)" fill="#8A4B06"/>
<ellipse rx="7.62412" ry="6.48734" transform="matrix(0.127568 0.99183 0.99183 -0.127568 75.7165 72.4742)" fill="#4EB543"/>
<g filter="url(#filter0_f)">
<ellipse rx="9.23308" ry="7.50459" transform="matrix(-0.258819 0.965926 0.965926 0.258819 76.5164 70.4863)" fill="#49FE36"/>
</g>
<path fill-rule="evenodd" clip-rule="evenodd" d="M73.9551 58.3711C72 59.5 69.4258 62.584 67 66C65.1195 70.0251 66.6832 76.476 69.4757 79.2022C67.346 70 69 64.5 73.9551 58.3711Z" fill="#1E1E40"/>
<path d="M66.8899 65.9744L66.9093 65.9332L66.9357 65.8963C67.0594 65.7237 67.1825 65.5515 67.3052 65.38C68.3671 63.8956 69.3927 62.4619 70.376 61.2324C71.4682 59.8667 72.5406 58.7105 73.5917 58.0069C75.6788 56.6097 78.0638 55.9184 80.3047 56.1495C82.5595 56.382 84.6368 57.5469 86.0674 59.794C87.7326 62.4095 87.5938 65.9957 85.7026 69.4718C85.3895 70.0474 85.1111 70.8917 84.7939 71.9233C84.7488 72.0698 84.7032 72.2195 84.6567 72.3719C84.3817 73.2734 84.0773 74.2709 83.7035 75.2578C82.835 77.551 81.5417 79.9302 79.1748 81.0612L79.1673 81.0648L79.1596 81.0682C76.6164 82.1807 74.4869 82.1034 72.7868 81.5324C71.1019 80.9666 69.8763 79.9288 69.1036 79.1811C67.6254 77.7507 66.5995 75.4682 66.1731 73.0684C65.7462 70.6653 65.9058 68.0635 66.8899 65.9744Z" stroke="#1E1E40"/>
<defs>
<filter id="filter0_f" x="58.8779" y="51.6255" width="35.2771" height="37.7216" filterUnits="userSpaceOnUse" color-interpolation-filters="sRGB">
<feFlood flood-opacity="0" result="BackgroundImageFix"/>
<feBlend mode="normal" in="SourceGraphic" in2="BackgroundImageFix" result="shape"/>
<feGaussianBlur stdDeviation="4" result="effect1_foregroundBlur"/>
</filter>
</defs>
</svg>
